<?xml version="1.0" encoding="UTF-8"?>
<svg id="Layer_1" xmlns="http://www.w3.org/2000/svg" version="1.1" viewBox="0 0 1920 1080">
  <!-- Generator: Adobe Illustrator 29.8.4, SVG Export Plug-In . SVG Version: 2.1.1 Build 6)  -->
  <path d="M987.49,526.61c68.99,74.6,113.93,206.77,41.23,294.08-21.71,26.08-65.99,51.78-100.31,53.65-43.66,2.38-3.06-33.55,4.85-44.48,105.65-146.05-136.97-380.25-275.28-268.6-11.27,9.1-18.62,31.4-36.18,18.76-11.87-8.54.7-43.8,5.4-56.22,60.95-161.18,269.09-95.82,360.3,2.82Z"/>
  <path d="M1232.51,621.64c32.63,32.09,116.1,104.18,129.77,143.26,59.92,171.28-200.32,223.38-222.19,55.43-8.69-66.73-7.93-156.41-10.29-225.27-.95-27.78,19.42-45.27,45.01-31.76,15.81,8.35,43.27,44.16,57.71,58.35Z"/>
  <path d="M664.84,126.56c34.18-5.37,69.88,5.09,97.23,25.45l169.94,170.1c18.85,51.85-41.61,43.26-75.17,42.5-49.9-1.13-110.73-2.92-160.04-6.71-165.96-12.78-156.14-211.82-31.95-231.33Z"/>
  <path d="M697.67,630.26c57.56-6.84,120.72,37.75,146.36,87.21,74.47,143.63-94.53,206.17-188.08,89.98-48.06-59.69-51.58-166.1,41.71-177.2Z"/>
  <path d="M1068.34,524.19c-14.1-28.87-39.72-56.84-64.29-77.9-9.7-8.31-38.9-20.13-37.07-33.61,1.31-3.42,2.94-8.79,6.08-10.62,3.46-2.01,62.05-11.12,70.16-11.55,76.35-4.03,61.1,58.44,49.9,112.01-3.28,15.68-5.21,25.59-24.78,21.66Z"/>
</svg>