<?xml version="1.0" encoding="UTF-8"?>
<svg id="Layer_1" xmlns="http://www.w3.org/2000/svg" version="1.1" viewBox="0 0 512 512">
  <!-- Generator: Adobe Illustrator 29.8.4, SVG Export Plug-In . SVG Version: 2.1.1 Build 6)  -->
  <defs>
    <style>
      .st0 {
        fill: #ff90e8;
      }
    </style>
  </defs>
  <path class="st0" d="M256,37c29.58,0,58.26,5.79,85.23,17.2,26.07,11.03,49.5,26.82,69.62,46.95s35.92,43.55,46.95,69.62c11.41,26.98,17.2,55.66,17.2,85.23s-5.79,58.26-17.2,85.23c-11.03,26.07-26.82,49.5-46.95,69.62-20.12,20.12-43.55,35.92-69.62,46.95-26.98,11.41-55.66,17.2-85.23,17.2-29.58,0-58.26-5.79-85.23-17.2-26.07-11.03-49.5-26.82-69.62-46.95-20.12-20.12-35.92-43.55-46.95-69.62-11.41-26.98-17.2-55.66-17.2-85.23s5.79-58.26,17.2-85.23c11.03-26.07,26.82-49.5,46.95-69.62s43.55-35.92,69.62-46.95c26.98-11.41,55.66-17.2,85.23-17.2M256,6C117.93,6,6,117.93,6,256s111.93,250,250,250h0c138.07,0,250-111.93,250-250S394.07,6,256,6h0Z"/>
  <path d="M234.3,381.99c-73.23,0-116.31-58.73-116.31-131.8s47.39-137.53,137.85-137.53,124.92,63.04,126.36,98.85h-67.49c-1.43-20.05-18.67-50.14-60.31-50.14-44.51,0-73.24,38.68-73.24,85.96s28.72,85.96,73.24,85.96c40.21,0,57.44-31.52,64.61-63.04h-64.61v-25.78h135.59v131.81h-59.49v-83.1c-4.31,30.08-22.98,88.82-96.21,88.82h0Z"/>
</svg>