<?xml version="1.0" encoding="UTF-8"?>
<svg id="Layer_2" xmlns="http://www.w3.org/2000/svg" version="1.1" viewBox="0 0 759.15 809.03">
  <!-- Generator: Adobe Illustrator 29.8.4, SVG Export Plug-In . SVG Version: 2.1.1 Build 6)  -->
  <path d="M497.14,158.47c1.17-.32,1.33.32,2,.78,2.83,1.93,7.93,8.3,10.4,11.21,57.46,67.77,58.06,167.68-2.4,233.75-5.58,6.1-23.27,19.98-24.37,26.85-1.7,10.63,5.57,14.06,14.72,14.79,26.25,2.09,55.62-11.96,72.45-31.67,32.42-37.97,24.2-97.42,76.58-121.13,39.62-17.93,87.73,4.61,83.52,51.5-1.7,18.86-21.2,38.62-41,33.02-11.32-3.2-12.68-15.88-.8-17.99,4.38-.78,6,.5,10.19-2.61,9.7-7.19,6.09-22.83-2.54-29.47-13.47-10.37-32.02-5.05-42.66,6.69-14.96,16.51-14.71,41.55-20.62,61.82-15.33,52.56-64.59,89.88-119.04,93.07-4.06.24-20.67-1.14-22.49,1.53-1.49,4.74,5.15,9.08,8.67,11.42,23.48,15.57,57.35,17.24,83.44,7.84,36.01-12.98,57.93-49.49,96.41-57.27,42.7-8.64,83.51,18.9,79.26,64.85-2.24,24.25-26.21,46.38-51.23,39.25-7.68-2.19-16.4-10.03-12.16-18.6,3.79-7.66,10.17-2.57,15.04-1.9,9.22,1.25,16.68-5,17.87-14,2.16-16.21-10.14-28.85-25.91-29.98-27.43-1.97-42.4,21.41-60.46,37.27-39.63,34.81-90.06,43.33-139.71,25.22-5.83-2.13-20.68-10.57-25.01-11.08-13.79-1.62-2.39,16.99.76,21.72,14.07,21.12,36.37,36.64,61.34,41.92,44.99,9.51,88.93-15.01,129.75,15.93,25.58,19.39,33.63,55.77,15.13,83.03-13.54,19.94-48.04,30.05-64.71,8.97-4.86-6.15-7.67-19.04,2.21-21.05,8.86-1.8,9.23,7.77,17.42,8.62,21.73,2.26,26.56-25.56,14.34-39.95-19.96-23.49-56.23-8.18-81.58-5.68-46.65,4.59-92.14-16.5-121.23-52.44-6.41-7.92-11.39-16.86-17.23-25.18-1.87-.12-2.07,12.56-2.03,14.03.44,17.63,5.35,39.43,14.02,54.81,18.07,32.06,56.97,41.62,70.44,77.64,10.1,26.99,3.15,60.5-22.56,75.87-17.69,10.58-44.09,10.41-57.4-7.12-5.12-6.74-9.34-23.33.53-27.34,13.82-5.61,8.51,14.47,22.59,16.22,19.6,2.44,27.22-19.02,22.26-35.06-6.86-22.18-40.29-35.4-57.07-50.99-35.54-33.04-35.97-71.3-40.11-115.97-1-10.81-6.17-17-8.6-2.41-1.6,9.6-.77,20.47-1.71,30.31-3.21,33.81-15.29,66.6-40.8,89.67-19.75,17.86-65.4,34.38-55.62,68.4,3.19,11.1,16.07,20.7,27.36,14.59,7.93-4.29,5.74-18.57,17.09-15.01,8.43,2.64,7.69,15.82,4.66,22.35-9.01,19.4-35.13,23.44-53.51,16.09-30.66-12.25-40.73-48.79-30.23-78.22,13.64-38.23,52.93-46.29,71.45-79.83,11.13-20.15,14.74-45.31,12.39-68.05-1.84-.45-1.31.34-1.83,1.01-4.7,6.06-8.63,14.38-13.51,20.87-30.83,40.98-78.62,61.5-129.82,54.85-24.44-3.18-63.73-16.97-78.97,11.7-8.31,15.63,0,39.7,20.05,34.46,5.85-1.53,11.29-15.08,19.19-5.63,9.42,11.25-7.15,25.76-17.91,28.53-50.55,12.99-76.4-53.82-44.51-91.73,41.25-49.03,103.75-10.72,156.27-31.03,18.64-7.21,46.82-30.18,52.65-49.8,1.58-5.32-.48-10.32-6.64-9.1-3.36.67-12.67,6.28-16.87,8-50.88,20.81-101.96,15.68-144.63-19.74-20.24-16.8-40.87-49.31-72.02-37.62-16.29,6.11-25.59,31.37-8.44,40.43,9.75,5.15,16.8-4.97,22.88,1.94,7.02,7.97-2.24,17.06-10.02,19.68-20.82,7.01-43.2-8.32-49.62-28.08-11.1-34.16,11.04-68.18,45.18-75.62,63.57-13.85,88.29,52.68,144.72,61.81,20.47,3.31,61.44-.95,74.6-19.38,1.03-1.44,2.83-3.57.6-4.6-5.85-2.69-15.96-.97-22.6-1.41-55.97-3.71-104.05-41.41-119.08-95.43-6.88-24.72-9.2-71.02-45.06-71.87-16.99-.41-33.96,18.27-21.96,33.24,5.74,7.17,15.5,2.62,19.1,8.11,6.6,10.06-7.82,15.94-16.18,15.43-31.54-1.94-40.16-41.15-26.27-65.3,19.8-34.42,67.16-32.94,95.01-9.09,32.1,27.49,30.17,70.45,53.03,103.05,13.73,19.59,35.77,33.34,59.37,37.48,9.93,1.74,34.56,4.44,33.69-11.22-.5-8.98-18.45-22.53-24.87-29.62-59.36-65.62-59.88-163.34-3.96-231.33,2.88-3.5,8.92-10.86,12.36-13.25.69-.48,1.1-1.37,2.05-.4l109.31,126.03c7.9,5.58,12.41,2.97,18.35-3.12,36.75-37.67,69.15-82.45,105.69-120.86.65-.68,1.11-1.46,1.17-2.41Z"/>
  <path d="M371.48-.37c51.56-2.22,115.24,16.47,155.53,49.26,7.13,5.8,11.06,8.69,12.54,18.7l-159.66,184.8L220.1,67.47c-.7-12.04,27.21-29.13,36.75-34.59C291.14,13.26,331.88,1.33,371.48-.37Z"/>
</svg>